# xmcd
#
# Track frame offsets: 
#        150
#        5098
#        16591
#        28094
#        37007
#        42928
#        49715
#        61375
#        72331
#        79923
#        86896
#        98908
#        107029
#        119239
#        127674
#        139383
#        156871
#        210659
#        225277
#        240162
#        255462
#
# Disc length: 3492 seconds
#
# Revision: 0
# Processed by: cddbd v1.5.2PL0 Copyright (c) Steve Scherf et al.
# Submitted via: ExactAudioCopy v0.95b3
#
DISCID=180da215
DTITLE=The Beatles  - Complete Home Recordings Home Tapes 1 - 1958-196
DTITLE=2 - Disc 2
DYEAR=1900
DGENRE=
TTITLE0=Matchbox
TTITLE1=The One After 909
TTITLE2=Cayenne
TTITLE3=Hello Little Girl
TTITLE4=That's When Your Heartaches Begin
TTITLE5=Wildcat
TTITLE6=Wildcat
TTITLE7=I'll Always Be In Love With You
TTITLE8=Some Days
TTITLE9=The One After 909
TTITLE10=Hallelujah I Love Her So
TTITLE11=You'll Be Mine
TTITLE12=The World Is Waiting For The Sunrise
TTITLE13=I'll Follow The Sun
TTITLE14=You Must Write Every Day
TTITLE15=Medley (Movin' And Groovin' - Ramrod)
TTITLE16=An Important Number
TTITLE17=I Saw Her Standing There
TTITLE18=The One After 909
TTITLE19=The One After 909
TTITLE20=Catswalk
EXTD=
EXTT0=
EXTT1=
EXTT2=
EXTT3=
EXTT4=
EXTT5=
EXTT6=
EXTT7=
EXTT8=
EXTT9=
EXTT10=
EXTT11=
EXTT12=
EXTT13=
EXTT14=
EXTT15=
EXTT16=
EXTT17=
EXTT18=
EXTT19=
EXTT20=
PLAYORDER=
